{"title":"Mockingbird.2014.LiMiTED.DVDRip.XViD-Sorrow","uid":12150380,"size":906167476,"categoryP":"video","categoryS":"movies","magnet":"?xt=urn:btih:190a9cdf6fb8032eebb805e1eca412c7d2922291&amp;dn=Mockingbird.2014.LiMiTED.DVDRip.XViD-Sorrow&amp;tr=udp%3A%2F%2Ftracker.openbittorrent.com%3A80&amp;tr=udp%3A%2F%2Fopen.demonii.com%3A1337&amp;tr=udp%3A%2F%2Ftracker.coppersurfer.tk%3A6969&amp;tr=udp%3A%2F%2Fexodus.desync.com%3A6969","seeders":2,"leechers":0,"uploader":null,"files":2,"time":1437613393,"description":"Mockingbird 2014 LiMiTED DVDRip XViD-Sorrow\n\nGeneral\nComplete name                            : Mockingbird.2014.LiMiTED.DVDRip.XViD-Sorrow.avi\nFormat                                   : AVI\nFormat/Info                              : Audio Video Interleave\nFile size                                : 864 MiB\nDuration                                 : 1h 18mn\nOverall bit rate                         : 1 535 Kbps\nWriting application                      : Lavf55.19.104\n\nVideo\nID                                       : 0\nFormat                                   : MPEG-4 Visual\nFormat profile                           : Simple@L3\nFormat settings, BVOP                    : No\nFormat settings, QPel                    : No\nFormat settings, GMC                     : No warppoints\nFormat settings, Matrix                  : Default (H.263)\nCodec ID                                 : XVID\nCodec ID/Hint                            : XviD\nDuration                                 : 1h 18mn\nBit rate                                 : 1 394 Kbps\nWidth                                    : 720 pixels\nHeight                                   : 400 pixels\nDisplay aspect ratio                     : 16:9\nFrame rate                               : 25.000 fps\nColor space                              : YUV\nChroma subsampling                       : 4:2:0\nBit depth                                : 8 bits\nScan type                                : Progressive\nCompression mode                         : Lossy\nBits/(Pixel*Frame)                       : 0.194\nStream size                              : 785 MiB (91%)\nWriting library                          : XviD 64\n\nAudio\nID                                       : 1\nFormat                                   : MPEG Audio\nFormat version                           : Version 1\nFormat profile                           : Layer 3\nMode                                     : Joint stereo\nCodec ID                                 : 55\nCodec ID/Hint                            : MP3\nDuration                                 : 1h 18mn\nBit rate mode                            : Constant\nBit rate                                 : 128 Kbps\nChannel count                            : 2 channels\nSampling rate                            : 48.0 KHz\nCompression mode                         : Lossy\nStream size                              : 72.1 MiB (8%)\nAlignment                                : Aligned on interleaves\nInterleave, duration                     : 24 ms (0.60 video frame)\nWriting library                          : LAME3.99.5\n\n\n\nHorror:Thriller\n\nA couple are given a camera and a set of instructions which they must follow or else someone will die.\n\n\nDirector: Bryan Bertino \n\nWriters: Bryan Bertino (screenplay), Bryan Bertino (story), 1 more credit Â» \n\nStars: Alyvia Alyn Lind, Natalie Alyn Lind, Emily Alyn Lind \n &lt;a href=&quot;\nhttp://www.imdb.com/title/tt2125685/&quot; rel=&quot;nofollow&quot; target=&quot;_NEW&quot;&gt;\nhttp://www.imdb.com/title/tt2125685/&lt;/a&gt;","torrent":{"xt":"urn:btih:190a9cdf6fb8032eebb805e1eca412c7d2922291","amp;dn":"Mockingbird.2014.LiMiTED.DVDRip.XViD-Sorrow","amp;tr":["udp%3A%2F%2Ftracker.openbittorrent.com%3A80","udp%3A%2F%2Fopen.demonii.com%3A1337","udp%3A%2F%2Ftracker.coppersurfer.tk%3A6969","udp%3A%2F%2Fexodus.desync.com%3A6969"],"infoHash":"190a9cdf6fb8032eebb805e1eca412c7d2922291","infoHashBuffer":{"type":"Buffer","data":[25,10,156,223,111,184,3,46,235,184,5,225,236,164,18,199,210,146,34,145]},"announce":[],"urlList":[]}}